<?xml version="1.0" standalone="no"?>
<!DOCTYPE svg PUBLIC "-//W3C//DTD SVG 20010904//EN"
 "http://www.w3.org/TR/2001/REC-SVG-20010904/DTD/svg10.dtd">
<svg version="1.0" xmlns="http://www.w3.org/2000/svg"
 width="1024.000000pt" height="1024.000000pt" viewBox="0 0 1024.000000 1024.000000"
 preserveAspectRatio="xMidYMid meet">
<metadata>
Created by potrace 1.11, written by Peter Selinger 2001-2013
</metadata>
<g transform="translate(0.000000,1024.000000) scale(0.100000,-0.100000)"
fill="#000000" stroke="none">
<path d="M0 8132 l0 -2108 1313 -231 c721 -127 1313 -231 1313 -230 4 5 304
1719 309 1762 20 172 8 341 -31 465 -53 169 -172 310 -330 391 -104 55 -205
92 -292 109 -34 7 -62 15 -62 19 0 3 18 115 42 249 29 169 46 242 55 242 11 0
1950 -342 2014 -356 22 -4 53 -49 179 -252 84 -136 181 -292 215 -347 34 -55
140 -226 236 -380 95 -154 218 -352 272 -440 55 -88 141 -227 192 -310 51 -82
174 -283 275 -445 100 -162 230 -371 288 -465 58 -93 144 -233 192 -310 319
-515 381 -617 377 -621 -2 -2 -487 81 -1078 185 -591 104 -1075 188 -1076 188
-2 -2 24 -44 347 -572 128 -209 289 -472 358 -585 139 -228 143 -233 612
-1000 184 -300 357 -583 386 -630 28 -47 147 -240 263 -430 l211 -345 282 -51
c156 -28 286 -48 290 -45 8 7 553 3070 547 3076 -2 2 -127 25 -277 51 -150 26
-276 51 -281 54 -6 3 49 336 130 790 167 941 174 990 166 1170 -17 390 -188
621 -544 735 -43 14 -87 25 -99 25 -11 0 -24 4 -30 10 -7 7 5 91 34 252 24
134 45 244 46 245 1 1 490 -85 1086 -191 1001 -178 1085 -194 1084 -212 -1
-37 -78 -459 -85 -469 -4 -6 -37 -8 -81 -5 -202 14 -405 -50 -566 -178 -118
-94 -215 -300 -277 -592 -21 -97 -295 -1647 -295 -1667 0 -16 144 -43 1248
-237 686 -121 1255 -221 1265 -224 16 -4 17 144 17 3007 l0 3011 -5120 0
-5120 0 0 -2108z m6865 -3318 c143 -25 261 -47 262 -48 4 -3 -105 -607 -110
-612 -3 -3 -25 28 -49 68 -25 40 -122 197 -215 348 -93 151 -173 280 -176 287
-5 7 -1 10 10 7 10 -2 135 -25 278 -50z"/>
<path d="M3437 6779 c-3 -13 -56 -312 -118 -664 -62 -352 -115 -643 -118 -647
-3 -4 -132 15 -286 42 -153 28 -282 47 -286 42 -3 -4 -59 -306 -124 -672 -183
-1042 -208 -1152 -298 -1325 -79 -152 -284 -286 -502 -326 -101 -19 -229 -21
-339 -7 -18 3 -23 -19 -63 -241 -24 -134 -42 -245 -40 -247 8 -9 2268 -406
2274 -400 9 8 92 480 86 489 -2 4 -12 7 -21 7 -32 0 -197 52 -268 85 -137 63
-265 164 -327 259 -74 112 -98 224 -98 448 0 86 5 190 11 230 13 86 281 1602
284 1605 1 1 267 -45 591 -102 325 -57 592 -102 594 -100 3 3 -138 238 -288
480 -34 55 -189 309 -346 565 -156 256 -290 474 -298 484 -13 19 -14 19 -20
-5z"/>
</g>
</svg>
